<?xml version="1.0" encoding="UTF-8" standalone="no"?>
<svg
   xmlns:sketch="http://www.bohemiancoding.com/sketch/ns"
   xmlns:dc="http://purl.org/dc/elements/1.1/"
   xmlns:cc="http://creativecommons.org/ns#"
   xmlns:rdf="http://www.w3.org/1999/02/22-rdf-syntax-ns#"
   xmlns:svg="http://www.w3.org/2000/svg"
   xmlns="http://www.w3.org/2000/svg"
   xmlns:sodipodi="http://sodipodi.sourceforge.net/DTD/sodipodi-0.dtd"
   xmlns:inkscape="http://www.inkscape.org/namespaces/inkscape"
   width="142px"
   height="74px"
   viewBox="0 0 142 74"
   version="1.1"
   id="svg2"
   inkscape:version="0.91 r13725"
   sodipodi:docname="LogoEccc.svg">
  <metadata
     id="metadata34">
    <rdf:RDF>
      <cc:Work
         rdf:about="">
        <dc:format>image/svg+xml</dc:format>
        <dc:type
           rdf:resource="http://purl.org/dc/dcmitype/StillImage" />
      </cc:Work>
    </rdf:RDF>
  </metadata>
  <sodipodi:namedview
     pagecolor="#ffffff"
     bordercolor="#666666"
     borderopacity="1"
     objecttolerance="10"
     gridtolerance="10"
     guidetolerance="10"
     inkscape:pageopacity="0"
     inkscape:pageshadow="2"
     inkscape:window-width="1072"
     inkscape:window-height="611"
     id="namedview32"
     showgrid="false"
     inkscape:zoom="2.1830986"
     inkscape:cx="50.558243"
     inkscape:cy="31.662325"
     inkscape:window-x="0"
     inkscape:window-y="0"
     inkscape:window-maximized="0"
     inkscape:current-layer="Every" />
  <!-- Generator: Sketch 3.3.3 (12081) - http://www.bohemiancoding.com/sketch -->
  <title
     id="title4">Logo</title>
  <desc
     id="desc6">Created with Sketch.</desc>
  <defs
     id="defs8" />
  <g
     id="Page-1"
     stroke="none"
     stroke-width="1"
     fill="none"
     fill-rule="evenodd"
     sketch:type="MSPage">
    <g
       id="Desktop"
       sketch:type="MSArtboardGroup"
       transform="translate(-442.000000, -65.000000)">
      <g
         id="Logo"
         sketch:type="MSLayerGroup"
         transform="translate(437.000000, 63.000000)">
        <g
           style="font-weight:normal;font-size:16px;font-family:Quicksand;letter-spacing:0.60000002;fill:#5e5e5e"
           id="Every">
          <path
             style=""
             d="M 99.048828 3.8007812 C 98.840828 3.8007812 98.664062 3.9755937 98.664062 4.1835938 L 98.664062 14.615234 C 98.664062 14.823234 98.823625 14.984 99.015625 15 L 99.048828 15 L 99.095703 15 L 104.80859 15 C 105.03259 15 105.19141 14.823234 105.19141 14.615234 C 105.19141 14.391234 105.03259 14.216797 104.80859 14.216797 L 99.447266 14.216797 L 99.447266 9.8007812 L 104.13672 9.8007812 C 104.34472 9.8007812 104.51953 9.6240156 104.51953 9.4160156 C 104.51953 9.1920156 104.34472 9.015625 104.13672 9.015625 L 99.447266 9.015625 L 99.447266 4.5839844 L 104.80859 4.5839844 C 105.03259 4.5839844 105.19141 4.4075938 105.19141 4.1835938 C 105.19141 3.9755937 105.03259 3.8007812 104.80859 3.8007812 L 99.080078 3.8007812 L 99.048828 3.8007812 z M 121.0918 7.1601562 C 118.9798 7.1601562 117.28516 8.9197031 117.28516 11.095703 C 117.28516 13.239703 118.9798 15 121.0918 15 C 122.4198 15 123.58777 14.296609 124.25977 13.224609 C 124.37177 13.032609 124.30881 12.807687 124.13281 12.679688 C 123.97281 12.583687 123.73309 12.616594 123.62109 12.808594 C 123.09309 13.688594 122.1318 14.232422 121.0918 14.232422 C 119.4758 14.232422 118.13273 12.936609 118.05273 11.224609 L 124.48438 11.224609 C 124.69237 11.224609 124.86914 11.079094 124.86914 10.871094 L 124.86914 10.824219 L 124.86914 10.808594 C 124.70914 8.7605937 123.1078 7.1601562 121.0918 7.1601562 z M 135.19336 7.1601562 C 135.00136 7.1601562 134.82617 7.3193438 134.82617 7.5273438 L 134.82617 11.783203 C 134.82617 13.543203 136.25014 14.968375 137.99414 14.984375 C 138.97014 14.984375 139.83378 14.535281 140.42578 13.863281 L 140.42578 14.376953 C 140.40978 15.992953 139.09684 17.287109 137.46484 17.287109 C 137.01684 17.287109 136.56955 17.176375 136.18555 16.984375 C 135.99355 16.936375 135.78545 16.983781 135.68945 17.175781 C 135.59345 17.351781 135.67361 17.5755 135.84961 17.6875 C 136.34561 17.9115 136.88884 18.056641 137.46484 18.056641 C 139.52884 18.056641 141.19336 16.424953 141.19336 14.376953 L 141.19336 11.927734 L 141.19336 11.783203 L 141.19336 7.5273438 C 141.19336 7.4793437 141.17848 7.4151875 141.14648 7.3671875 C 141.13048 7.3191875 141.08083 7.2722344 141.04883 7.2402344 C 140.98483 7.2082344 140.92142 7.1761563 140.85742 7.1601562 L 140.81055 7.1601562 L 140.76172 7.1601562 C 140.74572 7.1601562 140.72889 7.1757813 140.71289 7.1757812 L 140.68164 7.1757812 C 140.63364 7.1917813 140.56911 7.2234844 140.53711 7.2714844 C 140.52111 7.2714844 140.52186 7.2871094 140.50586 7.2871094 C 140.50586 7.3031094 140.49023 7.3199375 140.49023 7.3359375 C 140.44223 7.3839375 140.42578 7.4633437 140.42578 7.5273438 L 140.42578 11.783203 C 140.40978 13.127203 139.33814 14.199219 137.99414 14.199219 C 136.66614 14.199219 135.59375 13.127203 135.59375 11.783203 L 135.59375 7.5273438 C 135.59375 7.3193437 135.41736 7.1601562 135.19336 7.1601562 z M 128.25 7.1757812 C 128.026 7.1757812 127.84961 7.3365469 127.84961 7.5605469 L 127.84961 14.615234 C 127.84961 14.839234 128.026 15 128.25 15 C 128.442 15 128.61914 14.839234 128.61914 14.615234 L 128.61914 11.175781 C 128.61914 11.143781 128.61839 11.112828 128.65039 11.048828 C 128.76239 10.728828 129.06575 9.9286094 129.59375 9.2246094 C 130.13775 8.5206094 130.84319 7.9433594 131.86719 7.9433594 C 132.07519 7.9433594 132.25 7.7685469 132.25 7.5605469 C 132.25 7.3365469 132.07519 7.1757812 131.86719 7.1757812 C 130.36319 7.1757812 129.32247 8.1677031 128.73047 9.0957031 C 128.68247 9.1597031 128.65114 9.2231094 128.61914 9.2871094 L 128.61914 7.5605469 C 128.61914 7.3365469 128.442 7.1757812 128.25 7.1757812 z M 108.18164 7.2285156 C 108.13114 7.2277656 108.0812 7.2358594 108.0332 7.2558594 C 107.8572 7.3358594 107.75984 7.5599531 107.83984 7.7519531 L 110.78516 14.759766 C 110.81716 14.839766 110.86411 14.887547 110.91211 14.935547 C 110.94411 14.951547 110.96019 14.96875 110.99219 14.96875 C 111.00819 14.98475 111.00939 14.984375 111.02539 14.984375 C 111.07339 15.000375 111.10434 15 111.15234 15 C 111.23234 15 111.3442 14.968672 111.4082 14.888672 C 111.4562 14.824672 111.48791 14.759313 111.50391 14.695312 L 114.43164 7.7519531 C 114.51164 7.5599531 114.43223 7.3358594 114.24023 7.2558594 C 114.04823 7.1758594 113.80814 7.2728437 113.74414 7.4648438 L 111.13672 13.640625 L 108.5293 7.4648438 C 108.4813 7.3208437 108.33314 7.2307656 108.18164 7.2285156 z M 121.0918 7.9277344 C 122.5318 7.9277344 123.78111 9.0006562 124.03711 10.472656 L 118.09961 10.472656 C 118.38761 8.9846563 119.6198 7.9277344 121.0918 7.9277344 z M 103.99219 21.640625 C 100.77619 21.656625 98.167969 24.167562 98.167969 27.351562 C 98.167969 30.471563 100.77619 33 103.99219 33 C 105.36819 33 106.63142 32.535203 107.60742 31.783203 C 107.78342 31.655203 107.81625 31.368609 107.65625 31.224609 C 107.54425 31.032609 107.2877 31.000906 107.0957 31.128906 C 106.2637 31.832906 105.17619 32.216797 103.99219 32.216797 C 101.19219 32.216797 98.951172 30.023562 98.951172 27.351562 C 98.951172 24.615562 101.19219 22.423828 103.99219 22.423828 C 105.17619 22.423828 106.26491 22.839719 107.12891 23.511719 C 107.28891 23.639719 107.54388 23.623641 107.67188 23.431641 C 107.81588 23.287641 107.78342 23.015094 107.60742 22.871094 C 106.63142 22.119094 105.36819 21.640625 103.99219 21.640625 z M 111.78516 21.800781 C 111.57716 21.800781 111.40039 21.975594 111.40039 22.183594 L 111.40039 28.119141 L 111.40039 28.248047 L 111.40039 32.615234 C 111.40039 32.663234 111.40002 32.696141 111.41602 32.744141 C 111.43202 32.792141 111.44847 32.823094 111.48047 32.871094 C 111.56047 32.951094 111.67316 33 111.78516 33 L 111.83203 33 L 111.86523 33 C 111.88123 33 111.89648 32.984375 111.89648 32.984375 C 112.00848 32.952375 112.08872 32.888969 112.13672 32.792969 C 112.15272 32.776969 112.15197 32.760516 112.16797 32.728516 C 112.16797 32.712516 112.18359 32.696062 112.18359 32.664062 L 112.18359 32.615234 L 112.18359 28.248047 C 112.18359 26.872047 113.30406 25.943359 114.66406 25.943359 C 116.04006 25.943359 117.16016 26.872047 117.16016 28.248047 L 117.16016 32.615234 C 117.16016 32.823234 117.33692 33 117.54492 33 C 117.76892 33 117.94531 32.823234 117.94531 32.615234 L 117.94531 28.248047 C 117.94531 26.440047 116.47206 25.160156 114.66406 25.160156 C 113.67206 25.160156 112.77559 25.6085 112.18359 26.3125 L 112.18359 22.183594 C 112.18359 21.975594 112.00916 21.800781 111.78516 21.800781 z M 127.06445 21.800781 C 126.85645 21.800781 126.68164 21.975594 126.68164 22.183594 L 126.68164 32.615234 C 126.68164 32.823234 126.85645 33 127.06445 33 C 127.28845 33 127.46484 32.823234 127.46484 32.615234 L 127.46484 22.183594 C 127.46484 21.975594 127.28845 21.800781 127.06445 21.800781 z M 137.81055 21.800781 C 137.58655 21.800781 137.41016 21.975594 137.41016 22.183594 L 137.41016 26.695312 C 136.72216 25.767312 135.63434 25.160156 134.40234 25.160156 C 132.29034 25.160156 130.60938 26.919703 130.60938 29.095703 C 130.60938 31.239703 132.29034 33 134.40234 33 C 135.63434 33 136.72216 32.408469 137.41016 31.480469 L 137.41016 32.615234 C 137.41016 32.823234 137.58655 33 137.81055 33 C 138.01855 33 138.19336 32.823234 138.19336 32.615234 L 138.19336 29.095703 L 138.19336 28.935547 L 138.19336 22.183594 C 138.19336 21.975594 138.01855 21.800781 137.81055 21.800781 z M 122.21289 22.599609 C 122.00489 22.599609 121.82813 22.776375 121.82812 22.984375 L 121.82812 23.351562 C 121.82812 23.575563 122.00489 23.767578 122.21289 23.767578 C 122.43689 23.767578 122.61328 23.575563 122.61328 23.351562 L 122.61328 22.984375 C 122.61328 22.776375 122.43689 22.599609 122.21289 22.599609 z M 122.21289 25.160156 C 122.00489 25.160156 121.82813 25.320922 121.82812 25.544922 L 121.82812 32.615234 C 121.82812 32.823234 122.00489 33 122.21289 33 C 122.43689 33 122.61328 32.823234 122.61328 32.615234 L 122.61328 25.544922 C 122.61328 25.320922 122.43689 25.160156 122.21289 25.160156 z M 134.40234 25.943359 C 136.01834 25.943359 137.34616 27.28875 137.41016 28.96875 L 137.41016 29.224609 C 137.34616 30.888609 136.01834 32.216797 134.40234 32.216797 C 132.75434 32.216797 131.39453 30.823703 131.39453 29.095703 C 131.39453 27.351703 132.75434 25.943359 134.40234 25.943359 z M 103.99219 39.640625 C 100.77619 39.656625 98.167969 42.167562 98.167969 45.351562 C 98.167969 48.471562 100.77619 51 103.99219 51 C 105.36819 51 106.63142 50.535203 107.60742 49.783203 C 107.78342 49.655203 107.81625 49.368609 107.65625 49.224609 C 107.54425 49.032609 107.2877 49.000906 107.0957 49.128906 C 106.2637 49.832906 105.17619 50.216797 103.99219 50.216797 C 101.19219 50.216797 98.951172 48.023562 98.951172 45.351562 C 98.951172 42.615563 101.19219 40.423828 103.99219 40.423828 C 105.17619 40.423828 106.26491 40.839719 107.12891 41.511719 C 107.28891 41.639719 107.54388 41.623641 107.67188 41.431641 C 107.81588 41.287641 107.78342 41.015094 107.60742 40.871094 C 106.63142 40.119094 105.36819 39.640625 103.99219 39.640625 z M 114.26367 43.160156 C 112.19967 43.160156 110.55273 44.936078 110.55273 47.080078 C 110.55273 49.224078 112.19967 51 114.26367 51 C 115.46367 51 116.53698 50.375266 117.20898 49.447266 L 117.20898 50.615234 C 117.20898 50.823234 117.3838 51 117.5918 51 C 117.7998 51 117.97656 50.823234 117.97656 50.615234 L 117.97656 43.544922 C 117.97656 43.320922 117.7998 43.160156 117.5918 43.160156 C 117.3838 43.160156 117.20898 43.320922 117.20898 43.544922 L 117.20898 44.695312 C 116.53698 43.767313 115.46367 43.160156 114.26367 43.160156 z M 122.10352 43.175781 C 121.87952 43.175781 121.71875 43.352547 121.71875 43.560547 L 121.71875 46.232422 L 121.71875 46.359375 L 121.71875 50.615234 L 121.71875 50.712891 C 121.71875 50.712891 121.73438 50.728141 121.73438 50.744141 C 121.73438 50.760141 121.73595 50.776969 121.75195 50.792969 C 121.79995 50.888969 121.89581 50.968 122.00781 51 L 122.10352 51 C 122.21552 51 122.32662 50.951469 122.39062 50.855469 C 122.43863 50.807469 122.4547 50.743688 122.4707 50.679688 L 122.4707 50.615234 L 122.4707 46.359375 C 122.5027 45.031375 123.57434 43.943359 124.90234 43.943359 C 126.24634 43.943359 127.31836 45.031375 127.31836 46.359375 L 127.31836 50.615234 C 127.31836 50.839234 127.49513 51 127.70312 51 C 127.91112 51 128.08789 50.839234 128.08789 50.615234 L 128.08789 46.359375 C 128.08789 44.615375 126.66234 43.175781 124.90234 43.175781 C 123.92634 43.175781 123.0467 43.6245 122.4707 44.3125 L 122.4707 43.560547 C 122.4707 43.352547 122.31152 43.175781 122.10352 43.175781 z M 114.26367 43.912109 C 115.87967 43.912109 117.20898 45.320078 117.20898 47.080078 C 117.20898 48.840078 115.87967 50.232422 114.26367 50.232422 C 112.66367 50.232422 111.32031 48.840078 111.32031 47.080078 C 111.32031 45.320078 112.66367 43.912109 114.26367 43.912109 z M 103.99219 57.640625 C 100.77619 57.656625 98.167969 60.167562 98.167969 63.351562 C 98.167969 66.471563 100.77619 69 103.99219 69 C 105.36819 69 106.63142 68.535203 107.60742 67.783203 C 107.78342 67.655203 107.81625 67.368609 107.65625 67.224609 C 107.54425 67.032609 107.2877 67.000906 107.0957 67.128906 C 106.2637 67.832906 105.17619 68.216797 103.99219 68.216797 C 101.19219 68.216797 98.951172 66.023563 98.951172 63.351562 C 98.951172 60.615563 101.19219 58.423828 103.99219 58.423828 C 105.17619 58.423828 106.26491 58.839719 107.12891 59.511719 C 107.28891 59.639719 107.54388 59.623641 107.67188 59.431641 C 107.81588 59.287641 107.78342 59.015094 107.60742 58.871094 C 106.63142 58.119094 105.36819 57.640625 103.99219 57.640625 z M 128.51562 57.800781 C 128.29163 57.800781 128.11719 57.975594 128.11719 58.183594 L 128.11719 62.695312 C 127.42919 61.767313 126.33942 61.160156 125.10742 61.160156 C 122.99542 61.160156 121.31641 62.919703 121.31641 65.095703 C 121.31641 67.239703 122.99542 69 125.10742 69 C 126.33942 69 127.42919 68.408469 128.11719 67.480469 L 128.11719 68.615234 C 128.11719 68.823234 128.29162 69 128.51562 69 C 128.72362 69 128.90039 68.823234 128.90039 68.615234 L 128.90039 65.095703 L 128.90039 64.935547 L 128.90039 58.183594 C 128.90039 57.975594 128.72362 57.800781 128.51562 57.800781 z M 114.58789 61.160156 C 112.53989 61.160156 110.87695 62.952078 110.87695 65.080078 C 110.87695 67.208078 112.53989 69 114.58789 69 C 116.65189 69 118.30078 67.208078 118.30078 65.080078 C 118.30078 62.952078 116.65189 61.160156 114.58789 61.160156 z M 136.00391 61.160156 C 133.89191 61.160156 132.19727 62.919703 132.19727 65.095703 C 132.19727 67.239703 133.89191 69 136.00391 69 C 137.33191 69 138.49988 68.296609 139.17188 67.224609 C 139.28387 67.032609 139.22092 66.807688 139.04492 66.679688 C 138.88492 66.583687 138.6452 66.616594 138.5332 66.808594 C 138.0052 67.688594 137.04391 68.232422 136.00391 68.232422 C 134.38791 68.232422 133.04484 66.936609 132.96484 65.224609 L 139.39648 65.224609 C 139.60448 65.224609 139.78125 65.079094 139.78125 64.871094 L 139.78125 64.824219 L 139.78125 64.808594 C 139.62125 62.760594 138.01991 61.160156 136.00391 61.160156 z M 114.58789 61.912109 C 116.18789 61.912109 117.5332 63.336078 117.5332 65.080078 C 117.5332 66.824078 116.18789 68.232422 114.58789 68.232422 C 112.98789 68.232422 111.64453 66.824078 111.64453 65.080078 C 111.64453 63.336078 112.98789 61.912109 114.58789 61.912109 z M 136.00391 61.927734 C 137.44391 61.927734 138.69322 63.000656 138.94922 64.472656 L 133.01367 64.472656 C 133.30167 62.984656 134.53191 61.927734 136.00391 61.927734 z M 125.10742 61.943359 C 126.72342 61.943359 128.05319 63.28875 128.11719 64.96875 L 128.11719 65.224609 C 128.05319 66.888609 126.72342 68.216797 125.10742 68.216797 C 123.45942 68.216797 122.09961 66.823703 122.09961 65.095703 C 122.09961 63.351703 123.45942 61.943359 125.10742 61.943359 z "
             transform="translate(5,2)"
             id="path8095" />
        </g>
        <rect
           id="Rectangle-11"
           fill="#D8D8D8"
           sketch:type="MSShapeGroup"
           x="93"
           y="2"
           width="2"
           height="74" />
        <g
           style="font-weight:bold;font-size:72px;font-family:Quicksand"
           id="////">
          <path
             d="M 8.28,53.712 C 8.712,53.928 9.288,54 9.72,54 c 1.512,0 3.024,-0.864 3.672,-2.376 L 31.032,9.576 C 31.896,7.632 30.96,5.256 29.016,4.464 26.928,3.6 24.624,4.536 23.76,6.552 L 6.12,48.528 c -0.864,2.016 0.072,4.392 2.16,5.184 z"
             style="fill:#d0021b"
             id="path8130" />
          <path
             d="m 26.423999,53.712 c 0.432,0.216 1.008,0.288 1.44,0.288 1.512,0 3.024,-0.864 3.672,-2.376 l 17.64,-42.048 c 0.864,-1.944 -0.072,-4.32 -2.016,-5.112 -2.088,-0.864 -4.392,0.072 -5.256,2.088 l -17.64,41.976 c -0.864,2.016 0.072,4.392 2.16,5.184 z"
             style="fill:#f8e81c"
             id="path8132" />
          <path
             d="m 44.567998,53.712 c 0.432,0.216 1.008,0.288 1.44,0.288 1.512,0 3.024,-0.864 3.672,-2.376 l 17.64,-42.048 c 0.864,-1.944 -0.072,-4.32 -2.016,-5.112 -2.088,-0.864 -4.392,0.072 -5.256,2.088 l -17.64,41.976 c -0.864,2.016 0.072,4.392 2.16,5.184 z"
             style="fill:#7ed321"
             id="path8134" />
          <path
             d="m 62.711999,53.712 c 0.432,0.216 1.008,0.288 1.44,0.288 1.512,0 3.024,-0.864 3.672,-2.376 l 17.64,-42.048 c 0.864,-1.944 -0.072,-4.32 -2.016,-5.112 -2.088,-0.864 -4.392,0.072 -5.256,2.088 l -17.64,41.976 c -0.864,2.016 0.072,4.392 2.16,5.184 z"
             style="fill:#4990e2"
             id="path8136" />
        </g>
      </g>
    </g>
  </g>
</svg>
